<svg id="Layer_1" enable-background="new 0 0 511.773 511.773" height="512" viewBox="0 0 511.773 511.773" width="512" xmlns="http://www.w3.org/2000/svg"><g><g><g><g><path d="m374.03 306.249c5.011-7.857 7.926-17.181 7.926-27.192 0-12.967-4.891-24.779-12.905-33.737v-121.142c0-62.52-50.666-113.203-113.165-113.203-62.499 0-113.165 50.683-113.165 113.203v120.66c-8.017 8.96-12.905 20.781-12.905 33.752 0 10.011 2.915 19.334 7.926 27.192-18.371 7.597-31.301 25.692-31.301 46.814 0 27.97 22.666 50.643 50.626 50.643s169.676.467 197.636.467 50.626-22.674 50.626-50.643c.002-21.122-12.928-39.216-31.299-46.814z" fill="#ffe354"/><path d="m374.03 306.249c5.011-7.857 7.926-17.181 7.926-27.192 0-12.968-4.891-24.779-12.905-33.737v-121.142c0-62.52-50.666-113.203-113.165-113.203-5.086 0-10.092.341-15 .992 55.408 7.341 98.165 54.778 98.165 112.211v121.142c8.014 8.959 12.905 20.77 12.905 33.737 0 10.011-2.915 19.334-7.926 27.192 18.371 7.598 31.301 25.692 31.301 46.814 0 27.34-21.661 49.607-48.75 50.596 12.638.029 22.604.047 28.124.047 27.96 0 50.626-22.674 50.626-50.643 0-21.122-12.93-39.216-31.301-46.814z" fill="#f7d731"/><g><g><g><g><g><g><g><path d="m289.978 312.711v-95.16h-67.913v95.17l-13.272 3.34 41.479 165.499h11.499l41.48-165.499z" fill="#ffe5d9"/></g></g></g></g></g><path d="m289.978 312.711v-95.16h-30v95.16l-20.807 124.555 11.101 44.294h11.499l41.48-165.499z" fill="#ffdac9"/><g><path d="m286.684 88.471c-.014.086-.032.171-.046.257h.061c-.004-.086-.012-.171-.015-.257z" fill="none"/><path d="m286.699 88.728h-.061c-4.185 25.802-26.572 45.505-53.573 45.505h-44.289c-5.821 0-10.55 4.702-10.585 10.525l-.161 26.682c0 43.066 34.901 77.979 77.953 77.979h.08c43.052 0 77.953-34.912 77.953-77.979v-27.59c0-5.114-3.658-9.479-8.685-10.41-21.428-3.97-37.779-22.357-38.632-44.712z" fill="#ffeee6"/><path d="m325.329 133.439c-21.426-3.969-37.777-22.356-38.631-44.711h-.061c-1.977 12.187-8.017 23.01-16.684 31.042 6.7 6.937 15.496 11.839 25.376 13.669 5.027.931 8.685 5.296 8.685 10.41v27.591c0 37.946-27.1 69.547-62.992 76.528 4.843.942 9.841 1.45 14.96 1.45h.08c43.052 0 77.953-34.912 77.953-77.979v-27.589c-.001-5.114-3.659-9.479-8.686-10.411z" fill="#ffe5d9"/></g></g></g><path d="m412.277 504.284v-102.203c0-19.003-10.561-36.434-27.411-45.242l-17.22-9.001-64.666-31.777-27.033 7.959-19.853 35.998-19.927-35.998-27.374-7.959-64.666 31.777-17.22 9.001c-16.85 8.808-27.411 26.239-27.411 45.242v102.203" fill="#36b8ff"/><g><path d="m384.866 356.839-17.22-9.001-64.666-31.777-18.76 5.523 53.426 26.254 17.22 9.001c16.85 8.808 27.411 26.239 27.411 45.242v102.203h30v-102.203c0-19.003-10.561-36.434-27.411-45.242z" fill="#0aa5fa"/></g><g><g><path d="m302.982 279.03 20.54 41.241-27.376 44.531-20.54-40.782z" fill="#99dbff"/></g><g><path d="m208.791 279.03-20.54 41.241 27.375 44.531 20.541-40.782z" fill="#99dbff"/></g></g></g></g><path d="m330.172 398.587 8.99 27.68h29.095l-23.538 17.108 8.991 27.68-23.538-17.107-23.539 17.107 8.991-27.68-23.538-17.108h29.095z" fill="#ffe354"/><path d="m145.534 504.5v-85.399h72.465v85.399" fill="#0094e6"/><path d="m217.999 450.381-35.736 18.867-36.729-18.867v-34.755h72.465z" fill="#99dbff"/><path d="m369.548 107.794h-227.323v-20.624c0-44 35.669-79.67 79.67-79.67h67.983c44 0 79.67 35.669 79.67 79.67z" fill="#36b8ff"/><path d="m289.878 7.5h-30c44 0 79.67 35.669 79.67 79.67v20.624h30v-20.624c0-44.001-35.67-79.67-79.67-79.67z" fill="#0aa5fa"/><path d="m253.901 31.115 6.931 21.338h22.428l-18.145 13.187 6.931 21.338-18.145-13.187-18.145 13.187 6.931-21.338-18.145-13.187h22.428z" fill="#ffe354"/><path d="m142.225 122.689 5.229 5.528c15.25 16.122 36.46 25.255 58.647 25.255h99.853c23.147 0 45.182-9.938 60.508-27.291l3.085-3.493v-14.895h-227.322z" fill="#0094e6"/></g><g fill="#060606"><path d="m410.289 370.081c1.681-5.496 2.542-11.205 2.542-17.018 0-20.831-10.971-39.699-28.535-50.057 3.393-7.492 5.16-15.638 5.16-23.949 0-13.316-4.563-26.162-12.905-36.491l.496-155.397c0-48.065-39.104-87.17-87.169-87.17h-67.983c-13.761 0-26.954 3.137-39.214 9.324-8.657 4.369-1.899 17.763 6.758 13.392 10.144-5.119 21.064-7.715 32.456-7.715h67.983c39.794 0 72.169 32.375 72.169 72.17v13.124h-212.322v-13.124c0-14.661 4.38-28.78 12.667-40.831 5.495-7.99-6.865-16.49-12.359-8.499-10.014 14.563-15.308 31.621-15.308 49.33l.496 154.915c-8.343 10.327-12.905 23.178-12.905 36.506 0 8.311 1.768 16.457 5.16 23.948-17.563 10.358-28.535 29.226-28.535 50.057 0 5.931.898 11.742 2.644 17.333-6.154 9.364-9.591 20.474-9.591 32.152v102.419c0 9.697 15 9.697 15 0v-102.419c0-16.267 8.961-31.056 23.385-38.596l17.137-8.958 40.695-19.997 21.025 34.199c2.991 4.865 10.504 4.576 13.087-.554l14.436-28.663 11.833 19.594v145.394c0 9.697 15 9.697 15 0v-145.431l11.485-19.423 14.369 28.53c2.579 5.121 10.089 5.432 13.087.554l21.025-34.199 18.633 9.156c8.389 4.12 15.297-9.196 6.615-13.463l-17.883-8.788c.238-1.516.016-3.092-.69-4.508l-20.541-41.241c-2.198-4.413-8.671-5.573-12.217-1.727v-27.786c26.238-14.608 44.036-42.625 44.036-74.733v-17.965c7.166-3.157 13.91-7.263 20.037-12.235v104.08c0 1.845.68 3.625 1.91 5 7.09 7.927 10.995 18.132 10.995 28.737 0 8.227-2.334 16.235-6.75 23.159-2.258 4.73-1.105 8.384 3.458 10.963 17.007 7.034 27.887 24.78 26.54 43.105-4.524-3.593-9.681-6.518-14.902-8.988-8.595-4.491-15.542 8.801-6.948 13.294 16.551 8.189 28.923 22.146 28.923 41.49v102.419c0 9.697 15 9.697 15 0v-102.419c.004-11.615-3.394-22.669-9.485-32zm-269.47-28.975c-8.938 4.43-18.856 8.919-26.717 15.153-.101-1.213-.159-2.434-.159-3.663 0-17.529 10.467-33.184 26.667-39.883 4.563-2.579 5.716-6.233 3.458-10.963-4.416-6.924-6.75-14.933-6.75-23.159 0-10.617 3.904-20.828 10.994-28.751 1.23-1.375 1.911-3.156 1.911-5.001v-103.833c6.232 5.089 13.125 9.284 20.447 12.496l-.139 17.938c0 32.098 17.787 60.106 44.036 74.718v28.091c-3.48-4.202-10.236-3.084-12.487 1.436l-20.541 41.241c-.705 1.416-.928 2.993-.69 4.508zm74.156 8.316-18.155-29.532 12.627-25.354 18.149 29.827zm87.351-54.886 12.627 25.354-18.156 29.532-12.621-25.059zm-19.82 3.717-13.307 21.868c-.008.012-.013.026-.02.038-.009.015-.019.028-.028.043l-13.125 22.195-13.439-22.254c-.003-.004-.006-.008-.009-.013-.002-.003-.003-.006-.005-.009l-13.071-21.481c.037-.302.062-.607.062-.919v-45.016c8.347 2.723 17.247 4.214 26.497 4.214 9.218 0 18.092-1.486 26.417-4.2v44.991c0 .184.015.363.028.543zm44.008-126.812c0 38.862-31.605 70.479-70.533 70.479-38.848 0-70.452-31.617-70.452-70.42l.101-12.962c6.665 1.6 13.535 2.434 20.471 2.434h99.853c6.987 0 13.883-.834 20.56-2.436zm-20.559-25.469h-99.853c-15.478 0-56.309-10.365-56.376-30.678h212.322c1.532 20.298-41.564 30.678-56.093 30.678z"/><path d="m266.356 202.059c-5.772 5.77-15.166 5.77-20.938 0-6.861-6.854-17.462 3.755-10.604 10.61 5.81 5.806 13.441 8.708 21.073 8.708 7.631 0 15.263-2.903 21.073-8.708 6.858-6.855-3.745-17.465-10.604-10.61z"/><path d="m368.258 418.767h-23.646l-7.307-22.497c-2.197-6.763-12.07-6.763-14.267 0l-7.307 22.497h-23.646c-7.11 0-10.161 9.387-4.409 13.567l19.131 13.905-7.308 22.499c-2.196 6.762 5.79 12.565 11.542 8.384l19.129-13.902 19.129 13.902c5.752 4.182 13.738-1.622 11.542-8.384l-7.308-22.499 19.132-13.905c5.753-4.18 2.702-13.567-4.407-13.567zm-27.948 18.541c-2.628 1.91-3.728 5.294-2.724 8.384l1.859 5.725-4.864-3.535c-2.629-1.911-6.189-1.911-8.818 0l-4.865 3.536 1.86-5.725c1.003-3.089-.096-6.474-2.724-8.384l-4.871-3.541h6.019c3.25 0 6.129-2.093 7.133-5.183l1.857-5.719 1.857 5.719c1.004 3.09 3.884 5.183 7.133 5.183h6.019z"/><path d="m217.999 408.126h-72.465c-6.062 0-8.155 6.077-7.5 10.976v85.398c0 9.697 15 9.697 15 0v-41.834l25.802 13.254c2.313 1.118 4.622 1.105 6.928-.039l24.735-13.059v41.678c0 9.697 15 9.697 15 0v-85.398c.656-4.899-1.438-10.976-7.5-10.976zm-35.783 52.666-29.182-14.99v-19.201h57.465v19.258z"/><path d="m290.393 50.135c-1.004-3.09-3.884-5.182-7.133-5.182h-16.979l-5.247-16.155c-2.197-6.763-12.07-6.763-14.267 0l-5.247 16.155h-16.979c-7.11 0-10.161 9.387-4.41 13.567l13.738 9.985-5.248 16.156c-2.196 6.764 5.79 12.563 11.542 8.384l13.736-9.983 13.736 9.983c5.752 4.182 13.738-1.622 11.542-8.384l-5.248-16.156 13.738-9.985c2.631-1.91 3.73-5.295 2.726-8.385zm-32.569 17.263c-1.202-.739-2.562-1.108-3.923-1.108s-2.721.369-3.923 1.108c.663-2.746-.277-5.637-2.428-7.468 2.814-.217 5.273-2.002 6.351-4.611 1.078 2.609 3.537 4.394 6.351 4.611-2.151 1.831-3.091 4.723-2.428 7.468z"/></g></g></svg>